<svg xmlns="http://www.w3.org/2000/svg" width="28" height="28" viewBox="0 0 28 28"><defs><style>.a{fill:none;}.b{fill:#fff;fill-rule:evenodd;}</style></defs><rect class="a" width="28" height="28"/><path class="b" d="M16.3,12.028l8.1-4.4v9.934c0,.093-.021.179-.028.27Zm7.921-5.786L13.086,12.29,2.2,6.153A3.287,3.287,0,0,1,5.3,4H21.1A3.284,3.284,0,0,1,24.225,6.242ZM2,7.537l8.038,4.532-8.01,5.767C2.02,17.747,2,17.66,2,17.567Zm13.1,5.237,8.606,6.2a.654.654,0,0,0,.289.11A3.3,3.3,0,0,1,21.1,20.8H5.3A3.3,3.3,0,0,1,2.4,19.081a.657.657,0,0,0,.289-.11l8.6-6.193,1.457.822a.677.677,0,0,0,.651,0l1.643-.892A.525.525,0,0,0,15.1,12.774Z" transform="translate(0.8 1.6)"/></svg>