<svg xmlns="http://www.w3.org/2000/svg" width="29" height="28" viewBox="0 0 29 28"><defs><style>.a{fill:none;}.b{fill:#fff;fill-rule:evenodd;}</style></defs><rect class="a" width="29" height="28"/><path class="b" d="M28.55,5.516a10.662,10.662,0,0,1-2.8,2.734v.656a14.845,14.845,0,0,1-4.407,10.418Q16.935,24,9.639,24A16.358,16.358,0,0,1,1,21.594a13.145,13.145,0,0,0,1.342.109,11.452,11.452,0,0,0,7-2.3A5.931,5.931,0,0,1,6.078,18.34a5.034,5.034,0,0,1-1.985-2.6,7.479,7.479,0,0,0,1.051.109,6.972,6.972,0,0,0,1.518-.219A5.784,5.784,0,0,1,3.422,13.8a4.855,4.855,0,0,1-1.313-3.363v-.055a5.6,5.6,0,0,0,2.568.656,4.893,4.893,0,0,1-2.51-4.43,5.01,5.01,0,0,1,.759-2.625A15.663,15.663,0,0,0,14.542,9.508a4.49,4.49,0,0,1-.117-1.2,4.967,4.967,0,0,1,1.634-3.773A5.668,5.668,0,0,1,20.087,3a5.563,5.563,0,0,1,4.086,1.7,10.957,10.957,0,0,0,3.619-1.313,4.92,4.92,0,0,1-2.51,2.953A10.152,10.152,0,0,0,28.55,5.516Z" transform="translate(0.45 1.2)"/></svg>