<svg xmlns="http://www.w3.org/2000/svg" width="20" height="20" viewBox="0 0 20 20">
    <defs>
        <style>.a{fill:none;}.b{clip-path:url(#a);}.c{fill:#fff;}</style>
        <clipPath id="a">
            <rect class="a" width="20" height="20"/>
        </clipPath>
    </defs>
    <g class="b">
        <rect class="a" width="20" height="20"/>
        <path class="c" d="M14.667,13.309a2.226,2.226,0,0,0-1.524.618L7.6,10.594a2.711,2.711,0,0,0,.07-.562A2.711,2.711,0,0,0,7.6,9.47l5.483-3.3a2.284,2.284,0,0,0,1.587.651A2.369,2.369,0,0,0,17,4.41a2.335,2.335,0,1,0-4.667,0,2.711,2.711,0,0,0,.07.562L6.92,8.273a2.284,2.284,0,0,0-1.587-.651,2.411,2.411,0,0,0,0,4.819,2.284,2.284,0,0,0,1.587-.651l5.538,3.341a2.336,2.336,0,0,0-.062.522,2.272,2.272,0,1,0,2.271-2.345Z"/>
    </g>
</svg>
